HIERARCHY
ROOT hip
{
	OFFSET 0.000000 0.000000 0.000000
	CHANNELS 6 Xposition Yposition Zposition Xrotation Zrotation Yrotation 
	JOINT abdomen
	{
		OFFSET 0.000000 3.422050 0.000000
		CHANNELS 3 Xrotation Zrotation Yrotation 
		JOINT chest
		{
			OFFSET 0.000000 8.486693 -0.684411
			CHANNELS 3 Xrotation Zrotation Yrotation 
			JOINT neck
			{
				OFFSET 0.000000 10.266162 -0.273764
				CHANNELS 3 Xrotation Zrotation Yrotation 
				JOINT head
				{
					OFFSET 0.000000 3.148285 0.000000
					CHANNELS 3 Xrotation Zrotation Yrotation 
					End Site
					{
						OFFSET 0.000000 3.148289 0.000000
					}
				}
			}
			JOINT lCollar
			{
				OFFSET 3.422053 6.707223 -0.821293
				CHANNELS 3 Yrotation Zrotation Xrotation 
				JOINT lShldr
				{
					OFFSET 3.285171 0.000000 0.000000
					CHANNELS 3 Zrotation Yrotation Xrotation 
					JOINT lForeArm
					{
						OFFSET 10.129278 0.000000 0.000000
						CHANNELS 3 Yrotation Zrotation Xrotation 
						JOINT lHand
						{
							OFFSET 8.486692 0.000000 0.000000
							CHANNELS 3 Zrotation Yrotation Xrotation 
							End Site
							{
								OFFSET 4.106464 0.000000 0.000000
							}
						}
					}
				}
			}
			JOINT rCollar
			{
				OFFSET -3.558935 6.707223 -0.821293
				CHANNELS 3 Yrotation Zrotation Xrotation 
				JOINT rShldr
				{
					OFFSET -3.148289 0.000000 0.000000
					CHANNELS 3 Zrotation Yrotation Xrotation 
					JOINT rForeArm
					{
						OFFSET -10.266159 0.000000 0.000000
						CHANNELS 3 Yrotation Zrotation Xrotation 
						JOINT rHand
						{
							OFFSET -8.349810 0.000000 0.000000
							CHANNELS 3 Zrotation Yrotation Xrotation 
							End Site
							{
								OFFSET -4.106464 0.000000 0.000000
							}
						}
					}
				}
			}
		}
	}
	JOINT lThigh
	{
		OFFSET 5.338403 -1.642589 1.368821
		CHANNELS 3 Xrotation Zrotation Yrotation 
		JOINT lShin
		{
			OFFSET -2.053232 -20.121670 0.000000
			CHANNELS 3 Xrotation Zrotation Yrotation 
			JOINT lFoot
			{
				OFFSET 0.000000 -19.300380 -1.231939
				CHANNELS 3 Xrotation Yrotation Zrotation 
				End Site
				{
					OFFSET 0.000000 -2.463878 4.653993
				}
			}
		}
	}
	JOINT rThigh
	{
		OFFSET -5.338403 -1.642589 1.368821
		CHANNELS 3 Xrotation Zrotation Yrotation 
		JOINT rShin
		{
			OFFSET 2.053232 -20.121670 0.000000
			CHANNELS 3 Xrotation Zrotation Yrotation 
			JOINT rFoot
			{
				OFFSET 0.000000 -19.300380 -1.231939
				CHANNELS 3 Xrotation Yrotation Zrotation 
				End Site
				{
					OFFSET 0.000000 -2.463878 4.653993
				}
			}
		}
	}
}
MOTION
Frames: 15
Frame Time: 0.033325
0.000000 43.528500 0.000000 0.000000 0.000000 0.000000 0.000000 0.000000 0.000000 0.000000 0.000000 0.000000 0.000000 0.000000 0.000000 0.000000 0.000000 0.000000 0.000000 0.000000 0.000000 0.000000 0.000000 0.000000 0.000000 0.000000 0.000000 0.000000 0.000000 0.000000 0.000000 0.000000 0.000000 0.000000 0.000000 0.000000 0.000000 0.000000 0.000000 0.000000 0.000000 0.000000 0.000000 0.000000 0.000000 0.000000 0.000000 0.000000 0.000000 0.000000 0.000000 0.000000 0.000000 0.000000 0.000000 0.000000 0.000000 0.000000 0.000000 0.000000 
0.000000 21.279808 0.000000 -86.014908 0.000000 0.000000 0.998433 0.000000 0.000000 -8.002649 0.000000 0.000000 -0.002511 16.998251 -15.001988 8.998518 -21.000982 7.998735 -0.002337 20.996799 0.137362 -72.014259 6.001574 47.998234 -53.003632 -0.001705 1.998057 10.997196 -5.000397 -3.001508 -2.003768 -20.000002 -14.004169 -39.001431 9.998402 -89.000648 122.994453 -0.002276 -4.999010 -2.000363 3.998351 -3.001215 2.646540 2.394047 11.299269 -1.759424 -1.286870 6.177002 11.049329 7.110310 -9.086389 -39.993874 -7.517192 9.239271 78.305702 0.001619 -17.676849 45.807251 0.565593 -1.038126 
0.000000 21.279808 0.000000 -86.014908 0.000000 0.000000 0.998433 0.000000 0.000000 -8.002649 0.000000 0.000000 -0.002511 16.998253 -15.001990 8.998520 -21.000984 7.998735 -0.002337 20.996801 0.137362 -72.014267 6.001573 47.998238 -53.003635 -0.001705 1.998057 10.997196 -5.000397 -3.001508 -2.003768 -20.000002 -14.004169 -39.001431 9.998405 -89.000648 122.994453 -0.002276 -4.999010 -2.000363 3.998352 -3.001215 2.646540 2.394047 11.299269 -1.759424 -1.286870 6.177002 11.049329 7.110310 -9.086389 -39.993874 -7.517192 9.239271 78.305710 0.001619 -17.676851 45.807255 0.565593 -1.038126 
0.000000 21.279808 0.000000 -86.014908 0.000000 0.000000 0.998433 0.000000 0.000000 -8.002648 0.000000 0.000000 -0.002511 16.998247 -15.001988 8.998517 -21.000982 7.998735 -0.002337 20.996799 0.137362 -72.014259 6.001574 47.998234 -53.003624 -0.001705 1.998057 10.997195 -5.000397 -3.001507 -2.003767 -20.000002 -14.004168 -39.001427 9.998404 -89.000648 122.994453 -0.002276 -4.999010 -2.000363 3.998351 -3.001215 2.646539 2.394047 11.299269 -1.759424 -1.286870 6.177001 11.049329 7.110310 -9.086389 -39.993874 -7.517192 9.239271 78.305702 0.001619 -17.676849 45.807247 0.565593 -1.038126 
0.000000 21.279808 0.000000 -86.014908 0.000000 0.000000 0.998433 0.000000 0.000000 -8.002649 0.000000 0.000000 -0.002511 16.998251 -15.001988 8.998518 -21.000982 7.998735 -0.002337 20.996799 0.137362 -72.014259 6.001574 47.998234 -53.003632 -0.001705 1.998057 10.997196 -5.000397 -3.001508 -2.003768 -20.000002 -14.004169 -39.001431 9.998402 -89.000648 122.994453 -0.002276 -4.999010 -2.000363 3.998351 -3.001215 2.646540 2.394047 11.299269 -1.759424 -1.286870 6.177002 11.049329 7.110310 -9.086389 -39.993874 -7.517192 9.239271 78.305702 0.001618 -17.676849 45.807251 0.565593 -1.038126 
0.000000 21.279808 0.000000 -86.014908 0.000000 0.000000 0.998433 0.000000 0.000000 -8.002649 0.000000 0.000000 -0.002511 16.998253 -15.001990 8.998519 -21.000982 7.998735 -0.002337 20.996799 0.137362 -72.014267 6.001576 47.998238 -53.003632 -0.001705 1.998057 10.997196 -5.000397 -3.001508 -2.003768 -20.000002 -14.004169 -39.001431 9.998402 -89.000648 122.994453 -0.002276 -4.999010 -2.000363 3.998351 -3.001215 2.646540 2.394047 11.299270 -1.759424 -1.286870 6.177002 11.049329 7.110310 -9.086389 -39.993877 -7.517193 9.239271 78.305702 0.001618 -17.676849 45.807251 0.565593 -1.038126 
0.000000 21.279808 0.000000 -86.014908 0.000000 0.000000 0.998433 0.000000 0.000000 -8.002648 0.000000 0.000000 -0.002511 16.998249 -15.001988 8.998517 -21.000982 7.998735 -0.002337 20.996799 0.137362 -72.014259 6.001574 47.998234 -53.003632 -0.001705 1.998057 10.997196 -5.000397 -3.001508 -2.003768 -20.000002 -14.004169 -39.001431 9.998402 -89.000648 122.994438 -0.002276 -4.999010 -2.000363 3.998351 -3.001215 2.646540 2.394047 11.299269 -1.759424 -1.286870 6.177002 11.049327 7.110309 -9.086388 -39.993874 -7.517191 9.239270 78.305702 0.001618 -17.676849 45.807251 0.565593 -1.038126 
0.000000 21.279808 0.000000 -86.014908 0.000000 0.000000 0.998433 0.000000 0.000000 -8.002649 0.000000 0.000000 -0.002511 16.998251 -15.001988 8.998518 -21.000982 7.998735 -0.002337 20.996799 0.137362 -72.014259 6.001573 47.998238 -53.003635 -0.001705 1.998057 10.997196 -5.000397 -3.001508 -2.003768 -20.000002 -14.004169 -39.001431 9.998402 -89.000648 122.994453 -0.002276 -4.999010 -2.000363 3.998351 -3.001215 2.646540 2.394047 11.299269 -1.759424 -1.286870 6.177002 11.049329 7.110310 -9.086389 -39.993874 -7.517192 9.239271 78.305702 0.001619 -17.676849 45.807251 0.565593 -1.038126 
0.000000 21.279808 0.000000 -86.014915 0.000000 0.000000 0.998433 0.000000 0.000000 -8.002649 0.000000 0.000000 -0.002511 16.998253 -15.001988 8.998518 -21.000982 7.998735 -0.002337 20.996799 0.137362 -72.014267 6.001576 47.998238 -53.003632 -0.001705 1.998057 10.997196 -5.000398 -3.001508 -2.003768 -20.000004 -14.004169 -39.001431 9.998401 -89.000648 122.994453 -0.002275 -4.999011 -2.000363 3.998351 -3.001215 2.646540 2.394047 11.299270 -1.759424 -1.286870 6.177002 11.049329 7.110309 -9.086390 -39.993874 -7.517192 9.239271 78.305710 0.001619 -17.676849 45.807255 0.565593 -1.038126 
0.000000 21.279808 0.000000 -86.014908 0.000000 0.000000 0.998433 0.000000 0.000000 -8.002649 0.000000 0.000000 -0.002511 16.998251 -15.001988 8.998518 -21.000980 7.998733 -0.002337 20.996799 0.137362 -72.014259 6.001575 47.998234 -53.003632 -0.001705 1.998057 10.997196 -5.000397 -3.001508 -2.003767 -20.000002 -14.004168 -39.001431 9.998402 -89.000648 122.994438 -0.002276 -4.999010 -2.000363 3.998351 -3.001215 2.646540 2.394047 11.299269 -1.759424 -1.286870 6.177002 11.049329 7.110310 -9.086389 -39.993870 -7.517192 9.239270 78.305702 0.001619 -17.676849 45.807251 0.565593 -1.038126 
0.000000 21.279808 0.000000 -86.014908 0.000000 0.000000 0.998433 0.000000 0.000000 -8.002649 0.000000 0.000000 -0.002511 16.998251 -15.001988 8.998518 -21.000982 7.998735 -0.002337 20.996799 0.137362 -72.014259 6.001574 47.998234 -53.003624 -0.001705 1.998057 10.997196 -5.000397 -3.001508 -2.003768 -20.000002 -14.004169 -39.001431 9.998402 -89.000648 122.994438 -0.002276 -4.999010 -2.000363 3.998351 -3.001215 2.646540 2.394047 11.299269 -1.759424 -1.286870 6.177002 11.049329 7.110310 -9.086389 -39.993874 -7.517192 9.239271 78.305702 0.001619 -17.676849 45.807251 0.565593 -1.038126 
0.000000 21.279808 0.000000 -86.014908 0.000000 0.000000 0.998433 0.000000 0.000000 -8.002649 0.000000 0.000000 -0.002511 16.998251 -15.001988 8.998518 -21.000980 7.998735 -0.002337 20.996798 0.137362 -72.014259 6.001572 47.998230 -53.003624 -0.001705 1.998057 10.997195 -5.000397 -3.001508 -2.003768 -20.000000 -14.004168 -39.001423 9.998401 -89.000641 122.994453 -0.002276 -4.999010 -2.000363 3.998351 -3.001215 2.646540 2.394047 11.299269 -1.759424 -1.286870 6.177001 11.049329 7.110310 -9.086389 -39.993870 -7.517192 9.239270 78.305687 0.001619 -17.676847 45.807247 0.565593 -1.038126 
0.000000 21.279808 0.000000 -86.014908 0.000000 0.000000 0.998433 0.000000 0.000000 -8.002649 0.000000 0.000000 -0.002511 16.998251 -15.001988 8.998518 -21.000982 7.998735 -0.002337 20.996799 0.137362 -72.014259 6.001575 47.998234 -53.003632 -0.001705 1.998057 10.997196 -5.000397 -3.001508 -2.003768 -20.000002 -14.004169 -39.001431 9.998402 -89.000648 122.994453 -0.002276 -4.999010 -2.000363 3.998351 -3.001215 2.646540 2.394046 11.299269 -1.759424 -1.286870 6.177002 11.049329 7.110310 -9.086389 -39.993874 -7.517192 9.239271 78.305702 0.001619 -17.676849 45.807251 0.565593 -1.038126 
0.000000 21.279808 0.000000 -86.014915 0.000000 0.000000 0.998433 0.000000 0.000000 -8.002649 0.000000 0.000000 -0.002511 16.998251 -15.001988 8.998519 -21.000984 7.998735 -0.002337 20.996799 0.137362 -72.014259 6.001574 47.998234 -53.003632 -0.001705 1.998057 10.997196 -5.000398 -3.001508 -2.003768 -20.000004 -14.004169 -39.001431 9.998402 -89.000648 122.994453 -0.002276 -4.999011 -2.000363 3.998351 -3.001215 2.646540 2.394047 11.299269 -1.759424 -1.286870 6.177002 11.049329 7.110310 -9.086389 -39.993874 -7.517192 9.239271 78.305702 0.001619 -17.676849 45.807251 0.565593 -1.038126 
0.000000 21.279808 0.000000 -86.014908 0.000000 0.000000 0.998433 0.000000 0.000000 -8.002649 0.000000 0.000000 -0.002511 16.998251 -15.001988 8.998518 -21.000982 7.998735 -0.002337 20.996801 0.137362 -72.014259 6.001573 47.998238 -53.003635 -0.001705 1.998057 10.997197 -5.000397 -3.001508 -2.003768 -20.000002 -14.004169 -39.001434 9.998405 -89.000648 122.994453 -0.002276 -4.999011 -2.000363 3.998351 -3.001215 2.646540 2.394047 11.299269 -1.759424 -1.286870 6.177002 11.049329 7.110310 -9.086389 -39.993877 -7.517192 9.239271 78.305702 0.001619 -17.676849 45.807255 0.565593 -1.038126 
